<svg width="60" height="60" viewBox="0 0 60 60" fill="none" xmlns="http://www.w3.org/2000/svg">
<path d="M34.5 36.5L29.1082 38.2973C27.8492 38.7169 27 39.8951 27 41.2223C27 43.3267 29.0617 44.8128 31.0582 44.1473L34.5 43M51 14V8.27273C51 5.91297 49.087 4 46.7273 4H9C6.23858 4 4 6.23858 4 9M4 9V52C4 54.7614 6.23858 57 9 57H35.5C38.2614 57 40.5 54.7614 40.5 52V17.3182C40.5 15.4856 39.0144 14 37.1818 14H9C6.23858 14 4 11.7614 4 9ZM17 13.5V10.5C17 9.39543 17.8954 8.5 19 8.5H45.5L53.5 16.5V51C53.5 52.1046 52.6046 53 51.5 53H41.5M45 9V17H53M10 45L16 26.5L22 45M27 36.3103V35C27 32.7909 28.7909 31 31 31C33.2091 31 35 32.7909 35 35V45M12 39H20" stroke="#ffffff" stroke-width="4" stroke-miterlimit="10" stroke-linecap="round" stroke-linejoin="round"/>
</svg>
